<?xml version="1.0" encoding="utf-8" ?>
<svg xmlns="http://www.w3.org/2000/svg" xmlns:xlink="http://www.w3.org/1999/xlink" width="490" height="490">
	<path fill="#2A2A2A" transform="scale(0.98 0.98)" d="M0 0L500 0L500 500L0 500L0 0Z"/>
	<path fill="#757474" transform="scale(0.98 0.98)" d="M162.948 246.94C161.825 240.48 162.677 232.744 162.708 226.149L162.754 207.802C162.769 202.527 162.597 197.07 163.574 191.865C164.118 188.966 165.521 186.179 167.205 183.778C171.167 178.127 176.946 174.387 183.75 173.226C191.546 171.896 199.572 172.735 207.436 172.751L250.297 172.758L292.801 172.759C299.94 172.745 307.145 172.109 314.261 172.892C318.82 173.394 322.986 174.785 326.719 177.493C331.891 181.244 335.677 186.993 336.647 193.335C337.377 198.109 337.258 202.933 337.26 207.746L337.258 224.014L337.266 238.322C337.282 241.097 337.433 243.929 337.26 246.696C337.396 248.945 337.48 251.143 337.205 253.385C337.536 261.766 337.255 270.161 337.261 278.547C337.266 286.492 338.115 302.195 336.067 309.383C334.257 315.739 329.595 321.239 323.822 324.376C320.481 326.191 317.417 326.785 313.655 327.055C306.233 327.588 298.743 327.285 291.309 327.257L256.822 327.244L211.008 327.246C204.372 327.26 197.707 327.667 191.076 327.426C187.388 327.292 183.651 327.144 180.103 326.046C173.828 324.104 168.616 319.376 165.596 313.597C164.482 311.465 163.598 309.069 163.284 306.679C162.47 300.476 161.795 257.656 163.116 253.387C162.519 251.252 162.547 249.099 162.948 246.94Z"/>
	<path fill="#59E1E3" transform="scale(0.98 0.98)" d="M215.002 214.356Q218.005 214.292 221.008 214.318C225.087 214.377 229.812 214.835 232.752 218.017C237.306 222.946 236.292 231.886 235.962 238.028C232.174 238.606 228.283 238.349 224.474 238.15C224.522 235.235 225.165 230.406 223.58 227.862C223.013 226.951 222.279 226.573 221.24 226.393C219.555 226.101 215.056 225.758 213.845 227.074C211.437 229.691 212.685 267.019 213.42 272.798C216.161 273.257 219.359 273.941 222.054 272.896C226.799 271.055 222.699 265.333 224.665 262.291C225.144 261.55 225.696 261.525 226.483 261.278Q231.24 261.121 235.983 261.516C236.374 267.429 237.248 275.805 233.363 280.745C230.909 283.866 227.075 284.737 223.331 285.117C217.71 285.687 208.946 285.805 204.338 281.878C201.806 279.72 200.843 276.151 200.6 272.953C199.997 265.008 200.457 256.954 200.451 248.991C200.445 241.26 199.803 233.197 200.84 225.53C201.161 223.157 201.666 220.254 203.309 218.423C206.323 215.065 210.781 214.604 215.002 214.356Z"/>
	<path fill="#FE66C4" transform="scale(0.98 0.98)" d="M162.948 246.94C167.617 243.638 174.563 239.592 175.577 233.452C175.982 231.001 175.753 228.347 175.711 225.866C175.537 215.566 174.17 201.986 183.554 195.052C188.048 191.731 193.371 191.146 198.789 190.882Q198.715 197.531 198.992 204.174C196.225 204.233 192.909 204.056 190.874 206.288C183.933 213.901 196.559 240.493 179.332 250.498C184.872 254.987 188 259.885 188.769 267.045C189.248 271.509 189.105 275.953 188.951 280.429C188.844 283.554 188.445 287.02 189.089 290.096C189.412 291.635 190.096 293.065 191.304 294.1C193.399 295.895 196.389 295.988 199.017 296.046Q198.751 302.54 198.769 309.04C192.392 308.779 185.927 308.01 181.344 303.062C174.54 295.718 175.471 283.919 175.701 274.643C175.789 271.086 176.196 267.283 174.298 264.088C171.702 259.718 166.685 256.931 163.116 253.387C162.519 251.252 162.547 249.099 162.948 246.94Z"/>
	<path fill="#59E1E3" transform="scale(0.98 0.98)" d="M301.444 190.956C306.803 191.068 312.2 191.55 316.625 194.882C325.518 201.578 325.027 214.162 324.671 224.122C324.563 227.142 324.2 230.424 324.697 233.418C325.74 239.701 332.479 243.268 337.26 246.696C337.396 248.945 337.48 251.143 337.205 253.385C333.977 257.598 328.446 259.615 325.802 264.514C324.144 267.585 324.629 271.155 324.718 274.505C324.955 283.501 325.875 295.168 319.611 302.484C314.947 307.931 308.191 308.665 301.477 309.168Q301.494 302.613 301.428 296.058C304.085 295.955 306.948 295.92 309.07 294.072C310.356 292.953 311.083 291.385 311.379 289.727C311.859 287.039 311.533 284.073 311.441 281.348C311.287 276.748 311.077 272.086 311.46 267.492C312.081 260.056 315.609 255.226 321.138 250.504C303.547 239.462 316.547 213.427 309.338 206.299C307.184 204.169 304.253 204.278 301.45 204.215Q301.503 197.585 301.444 190.956Z"/>
	<path fill="#FE66C4" transform="scale(0.98 0.98)" d="M268.841 214.345C270.14 214.325 272.31 214.134 273.414 214.896C276.319 216.9 282.427 252.132 283.531 257.637C284.54 252.696 284.861 247.553 285.272 242.534C286.036 233.189 286.517 223.834 287.873 214.549C291.817 214.517 295.718 214.6 299.659 214.791C296.456 238.068 295.177 261.883 291.415 285.025L280.039 285.061C278.262 279.328 277.019 273.51 275.659 267.671C273.928 260.239 272.186 252.833 270.849 245.316C270.779 244.88 270.739 244.77 270.521 244.412C269.107 246.156 263.607 273.068 262.472 277.67C261.858 280.157 261.087 282.594 260.297 285.028L248.91 285.037C246.743 275.706 246.386 265.156 245.317 255.576C243.807 242.053 241.639 228.372 241.168 214.774C244.352 214.502 249.241 213.642 252.157 215.022C252.931 215.765 253.1 217.132 253.272 218.162C254.127 223.279 254.217 228.574 254.612 233.747C255.216 241.668 255.919 249.577 256.371 257.51C258.354 251.337 259.732 245.02 260.995 238.665C262.229 232.453 263.598 219.909 266.362 215.037C267.1 214.439 267.925 214.449 268.841 214.345Z"/>
</svg>
